<?xml version="1.0" encoding="UTF-8" standalone="no"?>
<!-- Created with Inkscape (http://www.inkscape.org/) -->

<svg
   version="1.1"
   id="svg1583"
   width="880"
   height="880"
   viewBox="0 0 880 880"
   sodipodi:docname="coffee-milk-cream-publicdomainvectors.org.svg"
   inkscape:version="1.2 (dc2aedaf03, 2022-05-15)"
   xmlns:inkscape="http://www.inkscape.org/namespaces/inkscape"
   xmlns:sodipodi="http://sodipodi.sourceforge.net/DTD/sodipodi-0.dtd"
   xmlns="http://www.w3.org/2000/svg"
   xmlns:svg="http://www.w3.org/2000/svg">
  <defs
     id="defs1587">
    <clipPath
       clipPathUnits="userSpaceOnUse"
       id="clipPath1599">
      <path
         d="M 0,660 H 660 V 0 H 0 Z"
         id="path1597" />
    </clipPath>
  </defs>
  <sodipodi:namedview
     id="namedview1585"
     pagecolor="#ffffff"
     bordercolor="#000000"
     borderopacity="0.25"
     inkscape:showpageshadow="2"
     inkscape:pageopacity="0.0"
     inkscape:pagecheckerboard="0"
     inkscape:deskcolor="#d1d1d1"
     showgrid="false"
     inkscape:zoom="0.95113636"
     inkscape:cx="441.05137"
     inkscape:cy="440.52569"
     inkscape:window-width="1920"
     inkscape:window-height="1017"
     inkscape:window-x="-8"
     inkscape:window-y="-8"
     inkscape:window-maximized="1"
     inkscape:current-layer="g1591">
    <inkscape:page
       x="0"
       y="0"
       id="page1589"
       width="880"
       height="880" />
  </sodipodi:namedview>
  <g
     id="g1591"
     inkscape:groupmode="layer"
     inkscape:label="Page 1"
     transform="matrix(1.3333333,0,0,-1.3333333,0,880)">
    <g
       id="g1593">
      <g
         id="g1595"
         clip-path="url(#clipPath1599)">
        <g
           id="g1601"
           transform="translate(340.1035,101.7217)">
          <path
             d="m 0,0 c 88.588,0 160.839,35.309 160.839,78.598 0,43.292 -72.251,78.6 -160.839,78.6 -88.585,0 -160.836,-35.308 -160.836,-78.6 C -160.836,35.309 -88.585,0 0,0"
             style="fill:#e6e6e6;fill-opacity:1;fill-rule:evenodd;stroke:none"
             id="path1603" />
        </g>
        <g
           id="g1605"
           transform="translate(182.4004,409.5508)">
          <path
             d="m 0,0 h 264.675 l -24.193,-219.464 c -7.901,-71.661 -208.388,-71.661 -216.288,0 z"
             style="fill:#9fb3c7;fill-opacity:1;fill-rule:evenodd;stroke:none"
             id="path1607" />
        </g>
        <g
           id="g1609"
           transform="translate(182.4004,409.5508)">
          <path
             d="m 0,0 h 264.675 l -4.144,-37.583 c -9.928,-4.928 -21.115,-7.703 -32.951,-7.703 -11.191,0 -22.102,2.498 -32.024,7.248 -10.72,-24.234 -34.991,-40.726 -62.585,-40.726 -25.768,0 -48.857,14.421 -60.493,36.422 -9.379,-4.321 -19.625,-6.583 -30.115,-6.583 -14.022,0 -27.106,4.011 -38.176,10.943 z"
             style="fill:#889eb3;fill-opacity:1;fill-rule:evenodd;stroke:none"
             id="path1611" />
        </g>
        <g
           id="g1613"
           transform="translate(325.6123,409.5508)">
          <path
             d="M 0,0 H 92.025 L 59.87,-260.36 c -19.229,-8.292 -43.721,-12.571 -68.392,-12.825 z"
             style="fill:#bfd1e3;fill-opacity:1;fill-rule:evenodd;stroke:none"
             id="path1615" />
        </g>
        <g
           id="g1617"
           transform="translate(405.8682,224.6133)">
          <path
             d="m 0,0 c -6.657,-60.387 -175.604,-60.389 -182.261,0 l -13.156,119.355 c 6.657,-60.389 201.745,-60.378 208.484,0 z"
             style="fill:#663c12;fill-opacity:1;fill-rule:evenodd;stroke:none"
             id="path1619" />
        </g>
        <g
           id="g1621"
           transform="translate(391.8193,200.5088)">
          <path
             d="m 0,0 c -16.346,-13.542 -44.618,-20.592 -73.387,-21.146 l 3.726,119.44 c 34.332,1.02 67.56,9.07 84.783,24.138 z"
             style="fill:#7d4c1b;fill-opacity:1;fill-rule:evenodd;stroke:none"
             id="path1623" />
        </g>
        <g
           id="g1625"
           transform="translate(203.2197,409.5508)">
          <path
             d="m 0,0 h 223.036 l -7.32,-65.583 c -6.739,-60.377 -201.827,-60.389 -208.485,0 z"
             style="fill:#c49a6f;fill-opacity:1;fill-rule:evenodd;stroke:none"
             id="path1627" />
        </g>
        <g
           id="g1629"
           transform="translate(203.2197,409.5508)">
          <path
             d="m 0,0 h 223.036 l -4.961,-44.429 c -3.688,-0.564 -7.467,-0.857 -11.314,-0.857 -11.192,0 -22.103,2.498 -32.025,7.248 -10.719,-24.234 -34.99,-40.726 -62.585,-40.726 -25.767,0 -48.856,14.421 -60.493,36.422 -9.379,-4.321 -19.625,-6.583 -30.114,-6.583 -5.626,0 -11.101,0.647 -16.356,1.866 z"
             style="fill:#b8895a;fill-opacity:1;fill-rule:evenodd;stroke:none"
             id="path1631" />
        </g>
        <g
           id="g1633"
           transform="translate(325.6123,409.5508)">
          <path
             d="M 0,0 H 92.025 L 81.329,-86.61 c -17.223,-15.068 -50.451,-23.118 -84.783,-24.138 z"
             style="fill:#cfa983;fill-opacity:1;fill-rule:evenodd;stroke:none"
             id="path1635" />
        </g>
        <g
           id="g1637"
           transform="translate(325.6123,409.5508)">
          <path
             d="m 0,0 h 92.025 l -5.59,-45.256 c -0.685,-0.018 -1.374,-0.03 -2.067,-0.03 -11.191,0 -22.102,2.498 -32.024,7.248 C 42.645,-59.96 21.861,-75.545 -2.442,-78.319 Z"
             style="fill:#c49c73;fill-opacity:1;fill-rule:evenodd;stroke:none"
             id="path1639" />
        </g>
        <g
           id="g1641"
           transform="translate(200.8496,294.8418)">
          <path
             d="m 0,0 11.479,-104.125 c 0.337,-3.065 1.101,-6.046 2.283,-8.896 6.085,-14.67 22.252,-23.906 36.4,-29.269 19.755,-7.488 42.682,-10.442 63.728,-10.442 21.043,0 43.97,2.954 63.723,10.442 14.151,5.363 30.317,14.599 36.401,29.272 1.182,2.85 1.945,5.828 2.284,8.893 L 227.775,0 c 0.119,1.065 0.01,2.077 -0.317,3.016 -0.696,1.997 -2.627,3.21 -4.728,2.97 -2.099,-0.237 -3.711,-1.852 -3.943,-3.954 l -8.035,-72.893 c -0.394,-3.584 -1.289,-7.074 -2.67,-10.405 -6.361,-15.337 -21.819,-24.882 -36.726,-30.532 -17.869,-6.773 -38.425,-9.49 -57.466,-9.49 -19.045,0 -39.599,2.715 -57.47,9.49 -14.906,5.65 -30.364,15.193 -36.725,30.532 -1.381,3.331 -2.276,6.821 -2.671,10.405 L 8.988,2.032 C 8.756,4.134 7.146,5.749 5.046,5.986 2.945,6.226 1.015,5.013 0.318,3.016 -0.01,2.077 -0.117,1.065 0,0"
             style="fill:#bfd1e3;fill-opacity:1;fill-rule:evenodd;stroke:none"
             id="path1643" />
        </g>
        <g
           id="g1645"
           transform="translate(317.2715,142.123)">
          <path
             d="m 0,0 c 20.34,0.23 42.228,3.241 61.191,10.429 2.574,0.976 5.212,2.08 7.844,3.319 l 4.532,36.68 C 67.756,46.452 61.296,43.332 54.935,40.921 38.16,34.563 19.016,31.778 0.981,31.461 Z"
             style="fill:#d3e1f0;fill-opacity:1;fill-rule:evenodd;stroke:none"
             id="path1647" />
        </g>
        <g
           id="g1649"
           transform="translate(314.6934,183.4248)">
          <path
             d="M 0,0 C 45.495,0 82.602,16.262 82.602,36.202 82.602,56.142 45.495,72.405 0,72.405 -45.496,72.405 -82.602,56.142 -82.602,36.202 -82.602,16.262 -45.496,0 0,0"
             style="fill:#54300c;fill-opacity:1;fill-rule:evenodd;stroke:none"
             id="path1651" />
        </g>
        <g
           id="g1653"
           transform="translate(318.5605,183.4658)">
          <path
             d="M 0,0 2.254,72.265 C 38.733,71.095 68.63,59.541 76.628,44.317 L 74.15,24.247 C 63.312,10.613 34.404,0.693 0,0"
             style="fill:#663c12;fill-opacity:1;fill-rule:evenodd;stroke:none"
             id="path1655" />
        </g>
        <g
           id="g1657"
           transform="translate(224.7637,373.001)">
          <path
             d="m 0,0 c 32.869,0 59.677,26.808 59.678,59.677 0,32.869 -26.809,59.677 -59.678,59.677 -32.869,0 -59.677,-26.808 -59.677,-59.677 C -59.677,26.808 -32.869,0 0,0"
             style="fill:#ebcfb3;fill-opacity:1;fill-rule:evenodd;stroke:none"
             id="path1659" />
        </g>
        <g
           id="g1661"
           transform="translate(315.3711,343.1621)">
          <path
             d="m 0,0 c 30.863,0 56.037,25.174 56.037,56.039 0,30.864 -25.174,56.038 -56.037,56.038 -30.865,0 -56.038,-25.174 -56.038,-56.038 C -56.038,25.174 -30.865,0 0,0"
             style="fill:#ebcfb3;fill-opacity:1;fill-rule:evenodd;stroke:none"
             id="path1663" />
        </g>
        <g
           id="g1665"
           transform="translate(409.9805,376.6392)">
          <path
             d="m 0,0 c 34.072,0 61.861,27.789 61.861,61.86 0,34.072 -27.789,61.861 -61.861,61.861 -34.071,0 -61.86,-27.789 -61.86,-61.861 C -61.86,27.789 -34.071,0 0,0"
             style="fill:#ebcfb3;fill-opacity:1;fill-rule:evenodd;stroke:none"
             id="path1667" />
        </g>
        <g
           id="g1669"
           transform="translate(281.5298,415.5762)">
          <path
             d="m 0,0 c 33.469,0 60.767,27.298 60.767,60.768 0,33.471 -27.298,60.769 -60.767,60.769 -33.471,0 -60.769,-27.298 -60.769,-60.769 C -60.769,27.298 -33.471,0 0,0"
             style="fill:#ebcfb3;fill-opacity:1;fill-rule:evenodd;stroke:none"
             id="path1671" />
        </g>
        <g
           id="g1673"
           transform="translate(343.3896,429.4038)">
          <path
             d="m 0,0 c 22.647,0 41.119,18.471 41.119,41.118 0,22.648 -18.472,41.12 -41.119,41.12 -22.648,0 -41.119,-18.472 -41.119,-41.12 C -41.119,18.471 -22.648,0 0,0"
             style="fill:#ebcfb3;fill-opacity:1;fill-rule:evenodd;stroke:none"
             id="path1675" />
        </g>
        <g
           id="g1677"
           transform="translate(374.8643,461.061)">
          <path
             d="m 0,0 c 33.172,0 60.224,27.053 60.224,60.223 0,33.17 -27.052,60.223 -60.224,60.223 -33.169,0 -60.222,-27.053 -60.222,-60.223 C -60.222,27.053 -33.169,0 0,0"
             style="fill:#ebcfb3;fill-opacity:1;fill-rule:evenodd;stroke:none"
             id="path1679" />
        </g>
        <g
           id="g1681"
           transform="translate(344.8438,532.7471)">
          <path
             d="M 0,0 C 20.244,0 36.754,16.509 36.754,36.752 36.754,56.995 20.244,73.504 0,73.504 -20.241,73.504 -36.75,56.995 -36.75,36.752 -36.75,16.509 -20.241,0 0,0"
             style="fill:#ebcfb3;fill-opacity:1;fill-rule:evenodd;stroke:none"
             id="path1683" />
        </g>
        <g
           id="g1685"
           transform="translate(457.4688,478.1431)">
          <path
             d="m 0,0 c 2.471,-6.683 3.821,-13.908 3.821,-21.449 0,-34.164 -27.697,-61.861 -61.861,-61.861 -10.106,0 -19.644,2.425 -28.068,6.723 -0.488,11.763 -4.603,22.59 -11.253,31.393 11.772,5.247 20.625,15.862 23.447,28.738 29.141,4.212 51.533,29.288 51.533,59.597 0,31.649 -24.413,57.593 -55.433,60.033 -4.217,12.414 -14.884,21.848 -28.011,24.304 9.935,-6.579 16.49,-17.856 16.49,-30.664 0,-20.297 -16.455,-36.752 -36.753,-36.752 -2.324,0 -4.596,0.218 -6.799,0.63 5.809,-3.846 12.774,-6.088 20.262,-6.088 20.298,0 36.754,16.454 36.754,36.752 0,0.884 -0.033,1.761 -0.095,2.629 18.447,-10.292 30.928,-29.998 30.928,-52.623 0,-21.391 -11.158,-40.174 -27.967,-50.856 0.028,0.621 0.043,1.245 0.043,1.873 0,22.709 -18.407,41.118 -41.117,41.118 -3.921,0 -7.714,-0.548 -11.303,-1.574 -10.897,16.307 -29.472,27.047 -50.557,27.047 -33.034,0 -59.91,-26.356 -60.749,-59.185 7.884,24.417 30.794,42.083 57.837,42.083 33.561,0 60.768,-27.208 60.768,-60.769 0,-0.529 -0.007,-1.057 -0.021,-1.583 1.902,5.888 2.932,12.165 2.932,18.685 0,10.971 -2.909,21.262 -7.993,30.147 18.87,-3.73 33.101,-20.37 33.101,-40.335 0,-11.012 -4.329,-21.012 -11.376,-28.392 -10.213,10.762 -24.65,17.475 -40.658,17.475 -8.857,0 -17.234,-2.058 -24.68,-5.718 1.774,0.17 3.574,0.259 5.394,0.259 30.948,0 56.037,-25.089 56.037,-56.038 0,-22.091 -12.784,-41.194 -31.357,-50.32 25.586,2.444 46.149,22.092 49.994,47.242 10.675,-8.763 24.333,-14.025 39.222,-14.025 34.167,0 61.861,27.696 61.861,61.86 C 14.373,-24.558 8.971,-10.736 0,0 m -173.226,-50.316 c -2.468,-30.69 -28.154,-54.826 -59.48,-54.826 -32.958,0 -59.676,26.719 -59.676,59.677 0,8.45 1.759,16.487 4.926,23.772 -0.128,-1.6 -0.196,-3.217 -0.196,-4.851 0,-32.958 26.718,-59.676 59.677,-59.676 24.509,0 45.564,14.776 54.749,35.904"
             style="fill:#dbb895;fill-opacity:1;fill-rule:evenodd;stroke:none"
             id="path1687" />
        </g>
        <g
           id="g1689"
           transform="translate(272.1484,504.9063)">
          <path
             d="m 0,0 c 7.888,0 14.282,-6.394 14.282,-14.281 0,-7.887 -6.394,-14.281 -14.282,-14.281 -7.887,0 -14.281,6.394 -14.281,14.281 C -14.281,-6.394 -7.887,0 0,0 m 39.504,-95.355 c 10.813,0 19.579,-8.767 19.579,-19.581 0,-10.813 -8.766,-19.579 -19.579,-19.579 -10.813,0 -19.579,8.766 -19.579,19.579 0,10.814 8.766,19.581 19.579,19.581 m 106.688,40.045 c 8.643,0 15.648,-7.005 15.648,-15.647 0,-8.642 -7.005,-15.647 -15.648,-15.647 -8.641,0 -15.647,7.005 -15.647,15.647 0,8.642 7.006,15.647 15.647,15.647 M 64.84,96.068 c 7.237,0 13.105,-5.867 13.105,-13.104 0,-7.237 -5.868,-13.104 -13.105,-13.104 -7.236,0 -13.104,5.867 -13.104,13.104 0,7.237 5.868,13.104 13.104,13.104 m 46.784,-70.595 c 5.226,0 9.462,-4.237 9.462,-9.462 0,-5.225 -4.236,-9.461 -9.462,-9.461 -5.227,0 -9.462,4.236 -9.462,9.461 0,5.225 4.235,9.462 9.462,9.462 M -76.141,-43.666 c 10.45,0 18.922,-8.472 18.922,-18.922 0,-10.45 -8.472,-18.922 -18.922,-18.922 -10.451,0 -18.922,8.472 -18.922,18.922 0,10.45 8.471,18.922 18.922,18.922"
             style="fill:#f7e3cf;fill-opacity:1;fill-rule:evenodd;stroke:none"
             id="path1691" />
        </g>
      </g>
    </g>
  </g>
</svg>
