<svg width="26" height="26" viewBox="0 0 26 26" fill="none" xmlns="http://www.w3.org/2000/svg">
<path d="M9.74992 11.6458C8.10325 11.6458 6.77075 10.3133 6.77075 8.66667C6.77075 7.02 8.10325 5.6875 9.74992 5.6875C11.3966 5.6875 12.7291 7.02 12.7291 8.66667C12.7291 10.3133 11.3966 11.6458 9.74992 11.6458ZM9.74992 7.3125C9.00242 7.3125 8.39575 7.91917 8.39575 8.66667C8.39575 9.41417 9.00242 10.0208 9.74992 10.0208C10.4974 10.0208 11.1041 9.41417 11.1041 8.66667C11.1041 7.91917 10.4974 7.3125 9.74992 7.3125Z" fill="white"/>
<path d="M16.2501 24.6458H9.75008C3.86758 24.6458 1.35425 22.1325 1.35425 16.25V9.75C1.35425 3.8675 3.86758 1.35417 9.75008 1.35417H14.0834C14.5276 1.35417 14.8959 1.7225 14.8959 2.16667C14.8959 2.61083 14.5276 2.97917 14.0834 2.97917H9.75008C4.75591 2.97917 2.97925 4.75583 2.97925 9.75V16.25C2.97925 21.2442 4.75591 23.0208 9.75008 23.0208H16.2501C21.2442 23.0208 23.0209 21.2442 23.0209 16.25V10.8333C23.0209 10.3892 23.3892 10.0208 23.8334 10.0208C24.2776 10.0208 24.6459 10.3892 24.6459 10.8333V16.25C24.6459 22.1325 22.1326 24.6458 16.2501 24.6458Z" fill="white"/>
<path d="M23.0208 6.22917H17.0625C16.6183 6.22917 16.25 5.86083 16.25 5.41667C16.25 4.9725 16.6183 4.60417 17.0625 4.60417H23.0208C23.465 4.60417 23.8333 4.9725 23.8333 5.41667C23.8333 5.86083 23.465 6.22917 23.0208 6.22917Z" fill="white"/>
<path d="M20.0417 9.20833C19.5976 9.20833 19.2292 8.84 19.2292 8.39583V2.4375C19.2292 1.99333 19.5976 1.625 20.0417 1.625C20.4859 1.625 20.8542 1.99333 20.8542 2.4375V8.39583C20.8542 8.84 20.4859 9.20833 20.0417 9.20833Z" fill="white"/>
<path d="M2.89249 21.3417C2.63249 21.3417 2.37249 21.2117 2.22083 20.9842C1.97166 20.6158 2.06916 20.1067 2.43749 19.8575L7.77833 16.2717C8.94833 15.4917 10.5625 15.5783 11.6242 16.4775L11.9817 16.7917C12.5233 17.2575 13.4442 17.2575 13.975 16.7917L18.4817 12.9242C19.6408 11.9383 21.4392 11.9383 22.5983 12.9242L24.3642 14.4408C24.7 14.7333 24.7433 15.2425 24.4508 15.5892C24.1583 15.925 23.6492 15.9683 23.3025 15.6758L21.5367 14.1592C20.995 13.6933 20.0742 13.6933 19.5433 14.1592L15.0367 18.0267C13.8883 19.0125 12.0792 19.0125 10.92 18.0267L10.5625 17.7125C10.0642 17.29 9.24083 17.2467 8.68833 17.6258L3.35833 21.2117C3.20666 21.2983 3.04416 21.3417 2.89249 21.3417Z" fill="white"/>
</svg>
